<svg width="180" height="180" viewBox="0 0 180 180" fill="none" xmlns="http://www.w3.org/2000/svg">
  <rect width="180" height="180" rx="38" fill="#0A0A0F"/>
  <rect x="10" y="10" width="160" height="160" rx="30" fill="#1A1033" stroke="#00D1FF" stroke-width="6"/>
  <path d="M50 132V48h45c21 0 37 15 37 35s-16 35-37 35H75v14H50Zm25-37h18c8 0 14-5 14-12s-6-12-14-12H75v24Z" fill="#00D1FF"/>
  <path d="M118 107c-4-8-16-7-18 3-2-10-14-11-18-3-5 11 9 21 18 29 9-8 23-18 18-29Z" fill="#D4AF37"/>
  <circle cx="132" cy="48" r="13" fill="#D4AF37"/>
  <circle cx="132" cy="48" r="6" fill="#0A0A0F"/>
  <path d="M38 39h48" stroke="#D4AF37" stroke-width="6" stroke-linecap="round"/>
</svg>
